<svg width="24" height="16" viewBox="0 0 24 16" fill="none" xmlns="http://www.w3.org/2000/svg">
<path d="M22.5406 3.19146C22.4218 2.76169 22.1799 2.36792 21.8392 2.04992C21.4986 1.73191 21.0713 1.50094 20.6006 1.38034C18.8806 1 12.0006 1 12.0006 1C12.0006 1 5.12057 1 3.40057 1.41656C2.92982 1.53717 2.50255 1.76814 2.16192 2.08614C1.82129 2.40414 1.57936 2.79791 1.46057 3.22768C1.14579 4.80839 0.991808 6.41192 1.00057 8.01811C0.989351 9.63639 1.14334 11.2521 1.46057 12.8448C1.59153 13.2612 1.83888 13.64 2.17872 13.9445C2.51855 14.2491 2.93939 14.4692 3.40057 14.5834C5.12057 15 12.0006 15 12.0006 15C12.0006 15 18.8806 15 20.6006 14.5834C21.0713 14.4628 21.4986 14.2319 21.8392 13.9139C22.1799 13.5959 22.4218 13.2021 22.5406 12.7723C22.8529 11.2035 23.0069 9.61221 23.0006 8.01811C23.0118 6.39983 22.8578 4.78407 22.5406 3.19146V3.19146Z" stroke="white" stroke-width="1.5" stroke-linecap="round" stroke-linejoin="round"/>
<path d="M9.75049 10.9793L15.5005 8.01808L9.75049 5.05688V10.9793Z" stroke="white" stroke-width="1.5" stroke-linecap="round" stroke-linejoin="round"/>
</svg>
