<svg width="19" height="16" viewBox="0 0 19 16" fill="none" xmlns="http://www.w3.org/2000/svg">
<path fill-rule="evenodd" clip-rule="evenodd" d="M18.458 2.03886C17.7791 2.35515 17.0488 2.56904 16.2828 2.66538C17.065 2.17276 17.6654 1.39355 17.9481 0.464671C17.2167 0.920324 16.4057 1.25116 15.5434 1.4299C14.8523 0.656748 13.8683 0.173828 12.7793 0.173828C10.6878 0.173828 8.9925 1.95463 8.9925 4.1517C8.9925 4.46315 9.02596 4.76671 9.09056 5.05816C5.9429 4.89214 3.15286 3.30826 1.28514 0.90154C0.959239 1.48928 0.772351 2.17276 0.772351 2.90169C0.772351 4.28137 1.44088 5.49927 2.45664 6.21244C1.83599 6.19184 1.25226 6.0131 0.74178 5.71498C0.741204 5.73195 0.741204 5.74831 0.741204 5.76527C0.741204 7.69271 2.04653 9.30022 3.77927 9.66559C3.46145 9.75648 3.1269 9.80495 2.78139 9.80495C2.5374 9.80495 2.30033 9.78011 2.06903 9.73406C2.55066 11.3143 3.94943 12.4643 5.60661 12.4965C4.31052 13.5635 2.67756 14.1991 0.903288 14.1991C0.597577 14.1991 0.296481 14.1803 0 14.144C1.67564 15.2722 3.66622 15.9308 5.80504 15.9308C12.7706 15.9308 16.5793 9.86918 16.5793 4.61281C16.5793 4.44012 16.5758 4.26865 16.5684 4.09778C17.3084 3.5373 17.9504 2.83685 18.458 2.03886Z" fill="white"/>
</svg>
