<svg width="16" height="16" viewBox="0 0 16 16" fill="none" xmlns="http://www.w3.org/2000/svg">
<path fill-rule="evenodd" clip-rule="evenodd" d="M13.583 14.4541H2.33301C2.07426 14.4541 1.86426 14.2335 1.86426 13.9617V6.57565H3.73926C3.49504 6.94495 3.41254 7.63383 3.41254 8.07108C3.41254 10.7079 5.45957 12.8533 7.97535 12.8533C10.4916 12.8533 12.5386 10.7079 12.5386 8.07108C12.5386 7.63383 12.4796 6.95529 12.1768 6.57565H14.0518V13.9617C14.0518 14.2335 13.8418 14.4541 13.583 14.4541ZM7.97504 5.04726C9.56832 5.04726 10.8597 6.40088 10.8597 8.07014C10.8597 9.73989 9.56832 11.0935 7.97504 11.0935C6.38223 11.0935 5.09082 9.73989 5.09082 8.07014C5.09082 6.40088 6.38223 5.04726 7.97504 5.04726ZM11.708 2.14379H13.1143C13.373 2.14379 13.583 2.36439 13.583 2.6362V4.11342C13.583 4.38523 13.373 4.60582 13.1143 4.60582H11.708C11.4493 4.60582 11.2393 4.38523 11.2393 4.11342V2.6362C11.2393 2.36439 11.4493 2.14379 11.708 2.14379ZM13.6749 0.173828H2.24113C1.25629 0.173828 0.458008 1.01043 0.458008 2.04251V14.0621C0.458008 15.0942 1.25629 15.9308 2.24113 15.9308H13.6749C14.6597 15.9308 15.458 15.0942 15.458 14.0621V2.04251C15.458 1.01043 14.6597 0.173828 13.6749 0.173828Z" fill="white"/>
</svg>
