<svg width="15" height="16" viewBox="0 0 15 16" fill="none" xmlns="http://www.w3.org/2000/svg">
<path fill-rule="evenodd" clip-rule="evenodd" d="M14.3752 0.173828H0.625313C0.279844 0.173828 0 0.467795 0 0.830205V15.2744C0 15.6369 0.279844 15.9308 0.625313 15.9308H7.96875V10.0219H6.09375V7.55992H7.96875V5.59029C7.96875 3.55518 9.19547 2.55363 10.9237 2.55363C11.7516 2.55363 12.4631 2.61862 12.6703 2.64718V4.77438L11.4717 4.77487C10.5319 4.77487 10.3125 5.24413 10.3125 5.93252V7.55992H12.6562L12.1875 10.0219H10.3125L10.35 15.9308H14.3752C14.7202 15.9308 15 15.6369 15 15.2744V0.830205C15 0.467795 14.7202 0.173828 14.3752 0.173828Z" fill="white"/>
</svg>
